# xmcd CD database file generated by OrangeCD 5.2
#
# Track frame offsets:
#	150
#	16487
#	29677
#	42345
#	57628
#	75388
#	82521
#	95245
#	112779
#	122283
#	131979
#	146022
#	158364
#	170828
#	186903
#	205249
#	219263
#	230792
#	244001
#	256586
#
# Disc length: 3587 seconds
#
# Revision: 0
# Processed by: cddbd v1.5.1PL0 Copyright (c) Steve Scherf et al.
# Submitted via: OrangeCD 5.2
#
DISCID=0d0e0114
DTITLE=Various Artist - Hello Darlin' - 20 Country Love Songs
DYEAR=1900
DGENRE=Country
TTITLE0=Billie Jo Spears - Blanket On The Ground
TTITLE1=Johnny Cash - Ring Of Fire
TTITLE2=Patsy Cline - A Poor Man's Roses
TTITLE3=Kenny Rogers - For The Good Times
TTITLE4=Marie O'brien - The Wind Beneath My Wings
TTITLE5=Jim Reeves - Have I Told You Lately
TTITLE6=Cindy Morgan - You're My Best Friend
TTITLE7=Don Williams - I Believe In You
TTITLE8=Susan Taylor - In My Life
TTITLE9=Faron Young - Remember Me
TTITLE10=Jo-Ann Houston - Crying Time
TTITLE11=Eddy Arnold - I'll Hold You In My Heart
TTITLE12=Billie Jo Spears - You Never Can Tell
TTITLE13=Jerry Lee Lewis - She Even Woke Me Up To Say Goodbye
TTITLE14=Cindy Morgan - Sweet Dreams
TTITLE15=Conway Twitty - 15 Years Ago
TTITLE16=George Jones - Just Out Of Reach
TTITLE17=George Jones - Hello Darlin'
TTITLE18=Marie O'brien - Let's Love The Bad Times Away
TTITLE19=Freddy Fender - Almost Persuaded
EXTD=
EXTT0=
EXTT1=
EXTT2=
EXTT3=
EXTT4=
EXTT5=
EXTT6=
EXTT7=
EXTT8=
EXTT9=
EXTT10=
EXTT11=
EXTT12=
EXTT13=
EXTT14=
EXTT15=
EXTT16=
EXTT17=
EXTT18=
EXTT19=
PLAYORDER=
